<svg width="519" height="124" viewBox="0 0 519 124" fill="none" xmlns="http://www.w3.org/2000/svg">
<path d="M165.071 101.816H179.701V60.9703C179.701 48.3732 172.09 39.0738 159.105 39.0738C152.781 39.0738 146.004 41.8939 142.483 47.0797V16.7808H127.864V101.781H142.483V69.5592C142.483 62.031 146.236 52.6151 155.005 52.6151C162.731 52.6151 165.071 56.9617 165.071 64.0353V101.816ZM224.147 77.6581C224.147 86.6429 217.764 91.549 208.717 91.549C204.188 91.549 200.123 88.6356 200.123 83.9626C200.123 79.0565 204.42 76.3762 208.833 76.0266L224.147 74.8612V77.6581ZM236.333 102.76C238.83 102.842 241.306 102.28 243.526 101.128V90.3837C242.918 90.5275 242.297 90.6057 241.673 90.6167C239.24 90.6167 238.313 89.5679 238.313 86.7595V64.2333C238.496 60.0731 237.903 55.915 236.564 51.9739C233.089 42.8612 224.262 39.5982 213.942 39.5982C200.47 39.5982 189.674 45.6697 188.863 59.3272H202.914C203.262 53.7222 207.2 50.6923 213.942 50.6923C222.178 50.6923 224.147 54.5377 224.147 60.2595V64.0002L206.378 65.2474C194.887 66.0631 185.956 72.7172 185.956 84.2771C185.956 94.2058 193.381 103.307 207.779 103.307C216.363 103.307 223.324 99.1119 226.116 94.2058C226.579 98.7623 230.054 102.725 236.321 102.725L236.333 102.76ZM281.914 54.0368C282.688 54.0424 283.462 54.0929 284.231 54.1881V40.4372C283.605 40.4372 282.98 40.2975 282.366 40.2975C275.277 40.2975 268.083 43.2108 265.303 50.2143L264.017 41.1132H251.704V101.827H266.334V71.237C266.334 61.4249 271.674 54.0715 281.879 54.0715L281.914 54.0368ZM327.692 101.851H342.205V61.3083C342.205 48.6993 334.654 39.5982 321.773 39.5982C314.822 39.5982 307.619 42.5116 304.016 48.9208L302.972 41.1013H290.822V101.816H305.324V77.0754C305.324 71.9363 305.208 65.6317 307.304 60.8422C309.275 56.4023 312.646 53.1393 317.73 53.1393C325.388 53.1393 327.704 57.4627 327.704 64.5829L327.692 101.851ZM389.836 65.4222H363.753C363.687 61.9989 364.796 58.6577 366.892 55.9596C368.096 54.4446 369.639 53.2341 371.393 52.4249C373.147 51.6157 375.064 51.2298 376.991 51.2982C378.676 51.2075 380.362 51.4718 381.941 52.0738C383.516 52.6758 384.952 53.6021 386.153 54.7942C388.472 57.3696 389.756 60.8657 389.872 65.4222H389.836ZM404.374 71.9597C404.606 64.3733 403.565 57.4861 399.15 50.8204C394.171 43.234 386.037 39.6214 377.142 39.6214C373.578 39.5168 370.028 40.1461 366.713 41.4708C363.399 42.7952 360.39 44.7873 357.866 47.3244C352.075 53.2793 349.168 61.9145 349.168 71.6101C349.168 81.5388 352.411 90.0572 358.434 95.8956C360.955 98.355 363.937 100.283 367.207 101.565C370.477 102.848 373.97 103.46 377.478 103.365C385.133 103.365 392.676 100.918 397.783 94.8468C400.102 92.0383 402.545 87.2607 402.893 83.6365H388.992C388.505 85.5828 387.5 87.3594 386.085 88.7753C384.001 90.873 381.45 91.6887 377.27 91.6887C373.917 91.6777 370.703 90.3379 368.328 87.9596C366.823 86.3813 365.658 84.5108 364.9 82.4628C364.139 80.4151 363.806 78.2327 363.913 76.0501H404.258C404.258 74.7563 404.374 71.9597 404.374 71.9597ZM423.858 58.0688C423.894 56.6523 424.354 55.2797 425.181 54.1331C426.01 52.9865 427.164 52.1196 428.493 51.6478C430.49 50.8936 432.628 50.5758 434.759 50.7155C437.64 50.6346 440.452 51.6311 442.646 53.5123C444.166 55.0306 445.037 57.0818 445.078 59.2342H458.899C458.727 54.5466 456.821 50.0927 453.56 46.7417C449.157 41.9405 441.847 39.6098 434.655 39.6098C427.101 39.6098 420.754 41.824 416.319 45.6813C414.336 47.3452 412.754 49.4378 411.69 51.8024C410.626 54.1673 410.105 56.7435 410.168 59.3391C410.168 67.0418 415.739 73.8124 423.974 75.572C429.313 76.7374 435.348 77.087 440.69 77.9028C444.397 78.4854 446.725 80.8161 446.725 84.3238C446.725 90.9779 439.299 92.0267 434.423 92.0267C430.241 92.0267 427.577 91.211 425.249 89.3464C423.644 87.9007 422.568 85.9562 422.19 83.8229H408.521C409.083 88.6121 411.306 93.0485 414.8 96.3502C419.794 101.14 426.638 103.342 434.308 103.342C442.542 103.342 450.084 101.245 454.96 96.3502C456.693 94.6084 458.052 92.5277 458.956 90.2368C459.856 87.9459 460.284 85.4933 460.207 83.0303C460.207 73.4512 453.257 67.3798 443.726 65.8648C437.807 64.9325 436.299 64.816 430.844 64.1168C427.601 63.6506 423.894 62.3572 423.894 58.0453L423.858 58.0688ZM500.763 59.2107H514.533C514.361 54.5234 512.458 50.0692 509.194 46.7185C504.782 41.9405 497.472 39.6098 490.325 39.6098C482.783 39.6098 476.424 41.824 471.989 45.6813C470.009 47.3452 468.424 49.4378 467.36 51.8024C466.296 54.1673 465.775 56.7435 465.838 59.3391C465.838 67.0418 471.409 73.8124 479.644 75.572C484.986 76.7374 491.021 77.087 496.36 77.9028C500.067 78.4854 502.395 80.8161 502.395 84.3238C502.395 90.9779 494.957 92.0267 490.093 92.0267C485.91 92.0267 483.247 91.211 480.919 89.3464C479.314 87.9007 478.238 85.9562 477.86 83.8229H464.146C464.705 88.6148 466.935 93.0527 470.437 96.3502C475.416 101.14 482.263 103.342 489.93 103.342C498.168 103.342 505.707 101.245 510.585 96.3502C512.312 94.6063 513.668 92.525 514.566 90.2341C515.464 87.9432 515.889 85.4918 515.809 83.0303C515.809 73.4512 508.858 67.3798 499.324 65.8648C493.405 64.9325 491.901 64.816 486.446 64.1168C483.202 63.6506 479.495 62.3572 479.495 58.0453C479.528 56.6291 479.991 55.2565 480.818 54.1096C481.644 52.963 482.801 52.0964 484.127 51.6246C486.128 50.8701 488.262 50.5523 490.394 50.6923C493.277 50.6114 496.087 51.6076 498.284 53.4889C499.803 55.0062 500.68 57.0572 500.727 59.2107" fill="white"/>
<path d="M103.948 42.1496L75.6373 13.6339C72.2845 10.4453 68.291 8.01733 63.9263 6.51369C54.2541 3.27405 44.6282 5.80282 36.8325 13.6339L8.45273 42.1496C5.28327 45.5226 2.86981 49.5401 1.37519 53.9313C-1.85662 63.662 0.657009 73.3457 8.45273 81.1768L36.7977 109.693C40.1449 112.882 44.135 115.311 48.4971 116.813C51.1397 117.712 53.9086 118.176 56.6981 118.188C63.4976 118.188 70.0076 115.298 75.5909 109.693L103.924 81.1768C107.098 77.8053 109.515 73.7875 111.013 69.3954C114.234 59.6647 111.72 49.9926 103.924 42.1496H103.948ZM58.3777 21.9078C60.5191 22.5984 62.4922 23.734 64.1695 25.2407L72.5443 33.6777L56.2117 50.0972L39.8788 33.6661L48.3 25.1824C50.5588 22.9217 53.7442 20.5211 58.4009 21.8961L58.3777 21.9078ZM16.7002 59.4551C17.3889 57.2992 18.5217 55.314 20.0247 53.6284L28.3996 45.203L44.7323 61.6342L28.388 78.0654L19.9668 69.5818C17.708 67.321 15.3334 64.1163 16.6886 59.4317L16.7002 59.4551ZM54.0225 101.384C51.8784 100.699 49.9039 99.5633 48.2307 98.051L39.8788 89.719L56.2117 73.2759L72.5443 89.7071L64.1231 98.191C61.8643 100.452 58.6905 102.852 54.0225 101.477V101.384ZM95.7231 63.9183C95.0346 66.0715 93.9061 68.0565 92.4102 69.745L84.0353 78.0654L67.7024 61.6342L84.0353 45.203L92.4565 53.675C94.7153 55.9356 97.09 59.1403 95.7347 63.8249" fill="#00ADE4"/>
</svg>
