<svg width="120" height="120" viewBox="0 0 120 120" fill="none" xmlns="http://www.w3.org/2000/svg">
<path d="M103.948 42.1496L75.6373 13.6339C72.2845 10.4453 68.291 8.01733 63.9263 6.51369C54.2541 3.27405 44.6282 5.80282 36.8325 13.6339L8.45273 42.1496C5.28327 45.5226 2.86981 49.5401 1.37519 53.9313C-1.85662 63.662 0.657009 73.3457 8.45273 81.1768L36.7977 109.693C40.1449 112.882 44.135 115.311 48.4971 116.813C51.1397 117.712 53.9086 118.176 56.6981 118.188C63.4976 118.188 70.0076 115.298 75.5909 109.693L103.924 81.1768C107.098 77.8053 109.515 73.7875 111.013 69.3954C114.234 59.6647 111.72 49.9926 103.924 42.1496H103.948ZM58.3777 21.9078C60.5191 22.5984 62.4922 23.734 64.1695 25.2407L72.5443 33.6777L56.2117 50.0972L39.8788 33.6661L48.3 25.1824C50.5588 22.9217 53.7442 20.5211 58.4009 21.8961L58.3777 21.9078ZM16.7002 59.4551C17.3889 57.2992 18.5217 55.314 20.0247 53.6284L28.3996 45.203L44.7323 61.6342L28.388 78.0654L19.9668 69.5818C17.708 67.321 15.3334 64.1163 16.6886 59.4317L16.7002 59.4551ZM54.0225 101.384C51.8784 100.699 49.9039 99.5633 48.2307 98.051L39.8788 89.719L56.2117 73.2759L72.5443 89.7071L64.1231 98.191C61.8643 100.452 58.6905 102.852 54.0225 101.477V101.384ZM95.7231 63.9183C95.0346 66.0715 93.9061 68.0565 92.4102 69.745L84.0353 78.0654L67.7024 61.6342L84.0353 45.203L92.4565 53.675C94.7153 55.9356 97.09 59.1403 95.7347 63.8249" fill="#00ADE4"/>
</svg>
